# xmcd
#
# Track frame offsets:
#	150
#	17789
#	24192
#	39651
#	53744
#	70854
#	87104
#	102862
#	117856
#	131585
#	151799
#	169042
#	188031
#	211540
#	226401
#	242712
#	260112
#
# Disc length: 3938 seconds
#
# Revision: 1
# Processed by: cddbd v1.5.1PL0 Copyright (c) Steve Scherf et al.
# Submitted via: audiograbber 1.83.01
#
DISCID=d30f6011
DTITLE=Brunner and Brunner - Unsere Grosse Zeit Cd I
DYEAR=1900
DGENRE=
TTITLE0=Schenk' Mir Diese Eine Nacht
TTITLE1=Charly and Jogl (Brüder Unter Sich)
TTITLE2=Du Bist Alles Auf Dieser Welt
TTITLE3=Weil Dein Herz Dich Verrät
TTITLE4=Shananana (Lass' Uns Leben)
TTITLE5=Verbotene Träume Der Nacht
TTITLE6=Bis in Alle Ewigkeit
TTITLE7=Eis Im Vulkan
TTITLE8=Sehnsucht In Mir
TTITLE9=Darum Lieb' Ich Dich
TTITLE10=Immer Wieder, Immer Mehr
TTITLE11=Sag' Doch
TTITLE12=Im Namen Der Liebe
TTITLE13=Baby Blue
TTITLE14=Ich Lieb' Dich Immer Mehr
TTITLE15=Unsere Grosse Zeit
TTITLE16=Hit Mix 1
EXTD=
EXTT0=
EXTT1=
EXTT2=
EXTT3=
EXTT4=
EXTT5=
EXTT6=
EXTT7=
EXTT8=
EXTT9=
EXTT10=
EXTT11=
EXTT12=
EXTT13=
EXTT14=
EXTT15=
EXTT16=
PLAYORDER=
